<svg width="471" height="471" viewBox="0 0 471 471" fill="none" xmlns="http://www.w3.org/2000/svg">
<path d="M125.225 171.954C128.322 171.954 130.832 169.444 130.832 166.347C130.832 163.25 128.322 160.74 125.225 160.74C122.129 160.74 119.618 163.25 119.618 166.347C119.618 169.444 122.129 171.954 125.225 171.954Z" fill="#FECC07"/>
<path d="M203.726 171.954C206.823 171.954 209.333 169.444 209.333 166.347C209.333 163.25 206.823 160.74 203.726 160.74C200.629 160.74 198.119 163.25 198.119 166.347C198.119 169.444 200.629 171.954 203.726 171.954Z" fill="#FECC07"/>
<path d="M293.351 301.283L213.071 279.012V252.071C227.549 240.614 237.896 224.241 241.518 205.48C259.005 204.298 272.881 189.731 272.881 171.953V83.5915C277.598 79.063 281.353 73.6298 283.922 67.6167C286.491 61.6037 287.822 55.1343 287.833 48.5954C287.833 21.8008 266.033 0.000192919 239.238 0.000192919C232.494 -0.0188955 225.821 1.37875 219.651 4.10262C213.482 6.82649 207.953 10.8158 203.423 15.8123C192.994 5.71574 179.029 0.000192919 164.476 0.000192919C149.924 0.000192919 135.958 5.71574 125.529 15.8123C120.999 10.8158 115.471 6.82649 109.301 4.10262C103.131 1.37875 96.4584 -0.0188955 89.7143 0.000192919C62.9196 0.000192919 41.119 21.8008 41.119 48.5954C41.1307 55.1343 42.4608 61.6037 45.0299 67.6167C47.5991 73.6298 51.3544 79.063 56.0714 83.5915V171.953C56.0714 189.623 69.7715 204.123 87.1051 205.465C90.3013 224.476 100.584 241.569 115.881 253.301V279.012L35.6016 301.283C14.6421 307.096 0 326.355 0 348.107V471H328.952V348.107C328.952 326.355 314.31 307.096 293.351 301.283ZM205.595 278.727L168.162 313.488L167.87 268.956C181.235 268.342 194.221 264.322 205.595 257.278V278.727ZM63.5476 127.095V112.143H265.405V127.095H63.5476ZM242.606 197.876C242.827 195.491 242.976 193.084 242.976 190.643V146.085C255.633 147.909 265.405 158.798 265.405 171.953C265.405 185.238 255.446 196.217 242.606 197.876ZM242.976 138.53V134.572H265.405V150.855C259.846 143.95 251.785 139.52 242.976 138.53ZM48.5952 48.5954C48.5952 25.9239 67.0427 7.47638 89.7143 7.47638C102.592 7.47638 114.498 13.3826 122.367 23.681L125.129 27.2883L128.138 23.8904C137.382 13.4611 150.627 7.47638 164.476 7.47638C178.326 7.47638 191.57 13.4611 200.818 23.8904L203.823 27.2883L206.582 23.681C214.454 13.3826 226.36 7.47638 239.238 7.47638C261.91 7.47638 280.357 25.9239 280.357 48.5954C280.357 60.2172 275.359 71.3642 266.646 79.1805L265.405 80.2945V104.667H63.5476V80.2945L62.3066 79.1805C58.004 75.3291 54.5598 70.6157 52.1976 65.3464C49.8354 60.0772 48.608 54.3699 48.5952 48.5954ZM63.5476 134.572H85.9762V138.53C77.1674 139.52 69.1062 143.95 63.5476 150.855V134.572ZM63.5476 171.953C63.5476 158.798 73.319 147.909 85.9762 146.085V192.886C85.9762 194.564 86.122 196.209 86.2266 197.861C73.4461 196.145 63.5476 185.197 63.5476 171.953ZM93.4524 192.886V134.572H235.5V190.643C235.5 229.807 203.476 261.667 164.11 261.667H162.233C124.307 261.667 93.4524 230.813 93.4524 192.886ZM160.398 269.05L160.686 313.387L123.357 278.727V258.37C134.575 265.069 147.336 268.748 160.398 269.05ZM119.843 285.669L158.981 322.011L155.531 325.214H130.833C116.408 325.214 104.667 336.952 104.667 351.381V463.524H67.2857V380.452C67.2857 365.649 64.4971 351.168 58.9983 337.416L46.4421 306.031L119.843 285.669ZM7.47619 348.107C7.47619 329.7 19.8642 313.406 37.6052 308.483L39.1977 308.042L52.0604 340.193C57.1891 352.995 59.8195 366.661 59.8095 380.452V463.524H7.47619V348.107ZM112.143 463.524V351.381C112.143 341.075 120.527 332.691 130.833 332.691H158.469L209.109 285.669L282.51 306.031L269.954 337.416C264.468 351.1 261.655 365.709 261.667 380.452V463.524H112.143ZM321.476 463.524H269.143V380.452C269.143 366.603 271.752 353.056 276.896 340.193L289.758 308.042L291.351 308.483C309.088 313.406 321.476 329.7 321.476 348.107V463.524Z" fill="#FECC07"/>
<path d="M145.786 153.263V190.644C145.786 200.95 154.171 209.335 164.477 209.335C174.783 209.335 183.167 200.95 183.167 190.644V153.263C183.167 151.204 184.842 149.525 186.905 149.525H224.286V142.049H186.905C180.723 142.049 175.691 147.08 175.691 153.263V190.644C175.691 196.827 170.66 201.859 164.477 201.859C158.294 201.859 153.262 196.827 153.262 190.644V153.263C153.262 147.08 148.231 142.049 142.048 142.049H104.667V149.525H142.048C144.112 149.525 145.786 151.204 145.786 153.263ZM200.923 222.717L195.316 217.775C187.485 226.665 176.244 231.763 164.477 231.763C152.709 231.763 141.469 226.665 133.637 217.775L128.03 222.717C137.278 233.217 150.56 239.239 164.477 239.239C178.394 239.239 191.675 233.217 200.923 222.717ZM142.048 347.644C133.802 347.644 127.096 354.35 127.096 362.597C127.096 370.843 133.802 377.549 142.048 377.549C150.294 377.549 157.001 370.843 157.001 362.597C157.001 354.35 150.294 347.644 142.048 347.644ZM142.048 370.073C137.925 370.073 134.572 366.72 134.572 362.597C134.572 358.473 137.925 355.12 142.048 355.12C146.171 355.12 149.524 358.473 149.524 362.597C149.524 366.72 146.171 370.073 142.048 370.073ZM142.048 403.716C133.802 403.716 127.096 410.422 127.096 418.668C127.096 426.914 133.802 433.62 142.048 433.62C150.294 433.62 157.001 426.914 157.001 418.668C157.001 410.422 150.294 403.716 142.048 403.716ZM142.048 426.144C137.925 426.144 134.572 422.791 134.572 418.668C134.572 414.545 137.925 411.192 142.048 411.192C146.171 411.192 149.524 414.545 149.524 418.668C149.524 422.791 146.171 426.144 142.048 426.144ZM448.572 112.144V164.478C448.529 165.44 448.116 166.349 447.42 167.015C446.724 167.681 445.797 168.052 444.834 168.052C443.87 168.052 442.944 167.681 442.248 167.015C441.551 166.349 441.139 165.44 441.096 164.478V112.144H418.667V164.478C418.624 165.44 418.211 166.349 417.515 167.015C416.819 167.681 415.893 168.052 414.929 168.052C413.966 168.052 413.039 167.681 412.343 167.015C411.647 166.349 411.234 165.44 411.191 164.478V112.144H388.762V129.695C381.316 119.101 369.025 112.144 355.12 112.144C332.448 112.144 314.001 130.592 314.001 153.263V171.954C314.001 189.022 324.351 204.057 340.04 210.213L336.429 340.168V343.906C336.429 354.212 344.814 362.597 355.12 362.597C365.426 362.597 373.81 354.212 373.81 343.906L370.199 210.213C380.266 206.273 388.363 198.506 392.717 188.611C397.136 198.236 404.975 206.09 414.798 210.105L411.191 340.168V343.906C411.191 354.212 419.576 362.597 429.881 362.597C440.187 362.597 448.572 354.212 448.572 343.906L444.961 210.168C452.648 207.167 459.249 201.911 463.896 195.091C468.543 188.272 471.019 180.206 471.001 171.954V112.144H448.572ZM388.762 171.954C388.784 179.109 386.514 186.083 382.286 191.856C378.058 197.628 372.093 201.896 365.265 204.034L362.573 204.883L366.334 340.168V343.906C366.334 350.089 361.302 355.12 355.12 355.12C348.937 355.12 343.905 350.089 343.905 343.906L347.666 204.883L344.974 204.034C338.146 201.896 332.181 197.628 327.953 191.856C323.725 186.083 321.455 179.109 321.477 171.954V153.263C321.477 134.715 336.567 119.62 355.12 119.62C373.672 119.62 388.762 134.715 388.762 153.263V171.954ZM463.524 171.954C463.54 179.103 461.267 186.069 457.038 191.834C452.809 197.598 446.847 201.858 440.023 203.989L437.335 204.842L441.096 340.168V343.906C441.096 350.089 436.064 355.12 429.881 355.12C423.699 355.12 418.667 350.089 418.667 343.906L422.428 204.834L419.774 203.967C405.917 199.444 396.239 185.747 396.239 170.672V119.62H403.715V164.478C403.715 170.66 408.746 175.692 414.929 175.692C421.112 175.692 426.143 170.66 426.143 164.478V119.62H433.62V164.478C433.62 170.66 438.651 175.692 444.834 175.692C451.017 175.692 456.048 170.66 456.048 164.478V119.62H463.524V171.954ZM250.453 89.7157H257.929V97.1919H250.453V89.7157ZM235.501 89.7157H242.977V97.1919H235.501V89.7157ZM220.548 89.7157H228.024V97.1919H220.548V89.7157ZM100.929 89.7157H108.405V97.1919H100.929V89.7157ZM85.9768 89.7157H93.453V97.1919H85.9768V89.7157ZM71.0244 89.7157H78.5006V97.1919H71.0244V89.7157Z" fill="#FECC07"/>
</svg>
